Coordinates
version=1
nRows=54
nColumns=12
inDegrees=yes

Units are S.I. units (second, meters, Newtons, ...)
Angles are in degrees

endheader
time	SC_y	SC_z	SC_x	AC_y	AC_z	AC_x	GH_y	GH_z	GH_yy	EL_x	PS_y
       0.0              -33.41          6.319          60.42           54.0         -16.14          13.77         -91.29         -16.11         -55.63          135.7          72.76
   0.03821              -33.41          6.322          60.42           54.0         -16.14          13.77         -91.25         -16.11         -55.64          135.7          72.76
   0.07641              -33.41          6.324          60.41           54.0         -16.14          13.76         -91.21          -16.1         -55.65          135.6          72.76
    0.1146              -33.42          6.327           60.4          54.01         -16.14          13.76         -91.17          -16.1         -55.66          135.6          72.76
    0.1528              -33.42           6.33          60.39          54.01         -16.14          13.75         -91.13         -16.09         -55.67          135.6          72.75
     0.191              -33.42          6.333          60.38          54.01         -16.14          13.74         -91.08         -16.08         -55.68          135.6          72.75
    0.2292              -33.42          6.337          60.37          54.01         -16.13          13.74         -91.03         -16.08         -55.69          135.6          72.75
    0.2674              -33.42           6.34          60.36          54.01         -16.13          13.73         -90.98         -16.07          -55.7          135.6          72.74
    0.3056              -33.43          6.344          60.35          54.01         -16.13          13.72         -90.92         -16.06         -55.71          135.5          72.74
    0.3439              -33.43          6.348          60.34          54.01         -16.13          13.72         -90.86         -16.06         -55.73          135.5          72.74
    0.3821              -33.43          6.353          60.32          54.02         -16.12          13.71          -90.8         -16.05         -55.74          135.5          72.73
    0.4203              -33.44          6.358          60.31          54.02         -16.12           13.7         -90.73         -16.04         -55.76          135.5          72.73
    0.4585              -33.44          6.363           60.3          54.02         -16.12          13.69         -90.65         -16.03         -55.78          135.4          72.72
    0.4967              -33.44          6.369          60.28          54.02         -16.11          13.68         -90.57         -16.02          -55.8          135.4          72.72
    0.5349              -33.45          6.375          60.26          54.02         -16.11          13.67         -90.48         -16.01         -55.82          135.4          72.71
    0.5731              -33.45          6.381          60.24          54.03         -16.11          13.65         -90.39          -16.0         -55.84          135.3          72.71
    0.6113              -33.46          6.389          60.22          54.03          -16.1          13.64         -90.28         -15.98         -55.86          135.3           72.7
    0.6495              -33.46          6.396           60.2          54.03          -16.1          13.62         -90.17         -15.97         -55.89          135.3           72.7
    0.6877              -33.47          6.405          60.17          54.03         -16.09          13.61         -90.04         -15.95         -55.92          135.2          72.69
    0.7259              -33.48          6.414          60.15          54.04         -16.09          13.59         -89.91         -15.94         -55.95          135.2          72.68
    0.7641              -33.48          6.425          60.12          54.04         -16.08          13.57         -89.76         -15.92         -55.98          135.1          72.67
    0.8023              -33.49          6.436          60.08          54.05         -16.07          13.55          -89.6          -15.9         -56.02          135.0          72.66
    0.8405               -33.5          6.449          60.05          54.05         -16.06          13.53         -89.41         -15.88         -56.06          135.0          72.65
    0.8787              -33.51          6.463          60.01          54.06         -16.06           13.5         -89.21         -15.85         -56.11          134.9          72.64
    0.9169              -33.52          6.478          59.96          54.06         -16.05          13.47         -88.99         -15.82         -56.16          134.8          72.62
    0.9551              -33.53          6.495          59.91          54.07         -16.04          13.44         -88.74         -15.79         -56.22          134.7          72.61
    0.9934              -33.54          6.515          59.86          54.08         -16.02           13.4         -88.46         -15.76         -56.28          134.6          72.59
     1.032              -33.56          6.536           59.8          54.08         -16.01          13.36         -88.15         -15.72         -56.35          134.5          72.57
      1.07              -33.58          6.561          59.73          54.09          -16.0          13.31          -87.8         -15.67         -56.44          134.4          72.55
     1.108              -33.59          6.589          59.64           54.1         -15.98          13.26         -87.39         -15.62         -56.53          134.2          72.53
     1.146              -33.62           6.62          59.55          54.11         -15.96           13.2         -86.94         -15.57         -56.64          134.1           72.5
     1.184              -33.64          6.657          59.45          54.13         -15.94          13.13         -86.41          -15.5         -56.76          133.9          72.47
     1.223              -33.67          6.699          59.33          54.14         -15.91          13.05          -85.8         -15.42          -56.9          133.6          72.43
     1.261               -33.7          6.748          59.19          54.16         -15.88          12.96          -85.1         -15.34         -57.06          133.4          72.39
     1.299              -33.74          6.805          59.02          54.18         -15.85          12.85         -84.27         -15.23         -57.25          133.1          72.34
     1.337              -33.79          6.873          58.83          54.21         -15.81          12.72         -83.29         -15.11         -57.48          132.7          72.28
     1.375              -33.84          6.953          58.59          54.24         -15.76          12.57         -82.14         -14.97         -57.74          132.3          72.21
     1.414              -33.91          7.049          58.32          54.27          -15.7          12.39         -80.75         -14.79         -58.07          131.8          72.13
     1.452              -33.99          7.166          57.98          54.32         -15.63          12.17         -79.07         -14.58         -58.45          131.1          72.02
      1.49              -34.09          7.308          57.57          54.37         -15.54           11.9         -77.02         -14.33         -58.93          130.4           71.9
     1.528              -34.21          7.483          57.06          54.44         -15.44          11.57         -74.49         -14.01         -59.51          129.4          71.75
     1.566              -34.36          7.702          56.43          54.52          -15.3          11.16         -71.33         -13.61         -60.24          128.3          71.56
     1.605              -34.54          7.978          55.64          54.62         -15.14          10.64         -67.35         -13.12         -61.16          126.8          71.32
     1.643              -34.78          8.328          54.63          54.75         -14.92          9.976          -62.3         -12.48         -62.33          124.9          71.01
     1.681              -35.09          8.776          53.33          54.92         -14.65          9.128         -55.83         -11.67         -63.82          122.5          70.62
     1.719              -35.48          9.352          51.67          55.13          -14.3          8.041         -47.52         -10.63         -65.74          119.4          70.12
     1.757              -35.99          10.09          49.55           55.4         -13.85          6.652         -36.92         -9.307         -68.19          115.5          69.47
     1.796              -36.62          11.01          46.89          55.75         -13.29          4.906         -23.58         -7.639         -71.28          110.5          68.67
     1.834              -37.39          12.14          43.64          56.17         -12.61          2.777         -7.327         -5.605         -75.03          104.4          67.69
     1.872              -38.28          13.44          39.87          56.65         -11.81         0.3106          11.51         -3.248         -79.39          97.44          66.55
      1.91              -39.24          14.86          35.79          57.18         -10.95          -2.36          31.91        -0.6956          -84.1          89.85          65.31
     1.949              -40.21          16.27          31.71           57.7         -10.09         -5.032          52.31          1.857         -88.81          82.26          64.08
     1.987               -41.1          17.58          27.95          58.19           -9.3         -7.498          71.15          4.214         -93.17          75.26          62.94
     2.025              -41.87           18.7           24.7          58.61         -8.615         -9.627           87.4          6.248         -96.92          69.21          61.96
